<svg width="197" height="86" viewBox="0 0 197 86" fill="none" xmlns="http://www.w3.org/2000/svg">
<rect x="11.0623" y="11.5654" width="63.2486" height="63.2486" rx="31.6243" fill="#28D045"/>
<rect x="6.92276" y="7.42581" width="71.5281" height="71.5281" rx="35.7641" stroke="#28D045" stroke-opacity="0.14" stroke-width="0.843315"/>
<rect x="0.657619" y="1.16043" width="84.0586" height="84.0586" rx="42.0293" stroke="#28D045" stroke-opacity="0.03" stroke-width="0.843315"/>
<rect x="190.552" y="35.4705" width="5.69772" height="5.69772" rx="2.84886" fill="#28D045"/>
<g clip-path="url(#clip0_1438_26373)">
<path fill-rule="evenodd" clip-rule="evenodd" d="M49.3462 46.2102C48.9797 46.027 47.1829 45.144 46.8484 45.021C46.5138 44.8992 46.2703 44.839 46.0256 45.2055C45.7821 45.5695 45.0823 46.3935 44.8696 46.637C44.6556 46.8817 44.4428 46.9112 44.0775 46.7292C43.7123 46.5447 42.5341 46.1598 41.1382 44.9152C40.0523 43.9461 39.3181 42.7495 39.1053 42.383C38.8926 42.0177 39.082 41.8197 39.2652 41.6377C39.43 41.4741 39.6305 41.211 39.8137 40.9982C39.997 40.7842 40.0572 40.6317 40.179 40.387C40.302 40.1435 40.2405 39.9307 40.1482 39.7475C40.0572 39.5642 39.3267 37.765 39.0217 37.0332C38.7253 36.3211 38.424 36.4183 38.2002 36.406C37.9862 36.3962 37.7427 36.3937 37.4992 36.3937C37.2557 36.3937 36.8596 36.4847 36.5251 36.8512C36.1894 37.2165 35.2461 38.1007 35.2461 39.9C35.2461 41.698 36.5546 43.4357 36.7379 43.6805C36.9211 43.924 39.3144 47.6159 42.9805 49.1987C43.8537 49.5751 44.5338 49.8001 45.0639 49.9674C45.9395 50.2465 46.7364 50.2072 47.3661 50.1125C48.0671 50.008 49.5282 49.2282 49.8332 48.3747C50.1369 47.5212 50.1369 46.7895 50.0459 46.637C49.9549 46.4845 49.7114 46.3935 49.3449 46.2102H49.3462ZM42.678 55.3147H42.6731C40.4956 55.3151 38.358 54.7297 36.4845 53.62L36.0418 53.3568L31.4398 54.5645L32.6684 50.0781L32.3794 49.6181C31.162 47.6803 30.5178 45.4376 30.5211 43.1492C30.5235 36.4466 35.9766 30.9935 42.6829 30.9935C45.9297 30.9935 48.9821 32.2602 51.277 34.5576C52.4089 35.6848 53.3061 37.0253 53.9166 38.5015C54.5271 39.9777 54.8388 41.5603 54.8337 43.1578C54.8312 49.8604 49.3781 55.3147 42.678 55.3147ZM53.0234 32.8124C51.6683 31.4484 50.0561 30.3669 48.28 29.6306C46.5039 28.8942 44.5994 28.5177 42.6768 28.5228C34.6164 28.5228 28.054 35.0839 28.0516 43.1479C28.0478 45.7143 28.7211 48.2362 30.0033 50.4593L27.9286 58.0388L35.6815 56.0046C37.8261 57.1731 40.2295 57.7854 42.6718 57.7854H42.678C50.7383 57.7854 57.3007 51.2243 57.3032 43.159C57.3091 41.2371 56.9339 39.3331 56.1993 37.5572C55.4647 35.7812 54.3852 34.1685 53.0234 32.8124Z" fill="white"/>
</g>
<defs>
<clipPath id="clip0_1438_26373">
<rect width="29.516" height="29.516" fill="white" transform="translate(27.9286 28.5227)"/>
</clipPath>
</defs>
</svg>
