<svg width="44" height="44" viewBox="0 0 44 44" fill="none" xmlns="http://www.w3.org/2000/svg">
<path d="M33.0894 33.4725C32.7669 33.4725 32.5826 33.5975 32.3523 33.8477C31.9376 34.2646 31.7994 34.7648 31.8455 35.5569C31.8455 35.6403 31.8916 35.7236 31.9376 35.8904C31.9837 36.0988 32.1219 36.3073 32.168 36.4323C32.3523 36.7242 32.7669 36.8492 33.1815 36.7659C33.9187 36.6408 34.149 35.5152 34.149 34.8065C34.149 34.0144 33.7344 33.4725 33.0894 33.4725Z" fill="#00A3B9"/>
<path d="M38.065 31.263C37.2358 30.8878 36.4065 30.8461 35.3008 30.8044C34.8862 30.8044 34.2873 30.8461 33.5041 30.9712C32.3523 31.1379 31.477 31.4297 30.9702 31.8049C30.2331 32.2635 29.8645 33.0139 29.8185 34.0144C29.7724 35.0983 30.187 35.7653 31.0163 36.3073C31.1084 36.349 31.1545 36.3906 31.2006 36.4323C31.1084 36.0988 31.0624 35.7236 31.0624 35.2651C31.1084 34.598 31.2927 33.9727 31.6152 33.4308C32.0298 32.8055 32.5827 32.4719 33.2737 32.5136C33.8726 32.5136 34.3333 32.8471 34.6558 33.4308C34.9322 33.931 35.0244 34.473 35.0244 35.0566C34.9783 35.7236 34.794 36.3073 34.4715 36.8075C34.3794 36.9326 34.2873 37.0577 34.1491 37.141C35.1626 37.016 36.3604 36.6825 37.374 36.0988C38.9403 35.1817 39.5853 34.5564 39.6314 33.3891C39.6775 32.4719 39.1246 31.7632 38.065 31.263Z" fill="#00A3B9"/>
<path d="M40.6449 28.9284C39.3549 27.9695 37.6964 27.3859 35.6693 27.1775C35.0243 27.0941 34.3333 27.0941 33.6883 27.0941H33.6422C31.1544 27.2192 29.3577 27.7194 28.1138 28.4281C28.4824 25.1347 29.4038 24.5511 29.4499 23.5506C29.4499 23.4255 29.4499 23.2588 29.4038 23.0086C30.7398 24.3844 31.9837 25.2598 33.458 25.2598C34.7018 25.2598 35.7154 24.6345 36.3143 24.1759L36.9593 23.7173C38.2032 23.5923 39.4471 23.1754 40.6449 22.5084C43.317 21.0493 43.9159 19.2567 43.9159 18.006C43.9159 17.0055 43.5473 16.1717 42.9023 15.5464C43.317 14.7127 43.5473 13.7955 43.5473 12.8367C43.5473 11.1275 42.3034 9.20981 40.5067 7.95916C38.5257 6.54176 35.3929 5.6663 33.3658 6.04149C31.0623 6.45838 30.0948 7.66733 28.9431 9.08474L28.9891 7.04201C28.9891 5.45786 29.0813 4.99928 29.0813 4.95759L29.1274 4.87423C29.3116 4.12384 29.3577 3.99876 29.3577 3.70695C29.3577 2.62305 28.7127 1.66423 27.561 1.12228C26.2249 0.496953 24.7968 0.580319 23.4147 1.3724C22.8618 1.7059 22.4933 2.03941 22.2168 2.41461C22.1708 2.37292 22.1708 2.37292 22.1247 2.33124C21.3415 1.70591 20.374 1.3724 19.2684 1.3724C18.8076 1.3724 18.3469 1.45577 17.9323 1.58084C17.8862 1.53915 17.8402 1.45578 17.7941 1.41409L17.702 1.33072C16.7345 0.413576 15.5367 -0.00331051 14.2928 0.121754C10.6993 0.496949 10.7454 4.66578 10.7454 6.24994C10.7454 7.83409 10.8375 9.45993 11.1139 11.0024L11.2061 11.7528C10.6993 11.8362 9.82397 11.9612 8.02723 12.4615C7.79688 9.75175 7.88902 8.20929 8.02723 7.33383C8.0733 7.25046 8.11937 7.04201 8.16544 6.79188C8.39579 6.12487 8.48794 5.62462 8.44186 5.08267C8.30365 3.99877 7.6126 3.08163 6.50692 2.53968C5.72373 2.16448 4.80232 1.99773 3.97306 2.0811C2.36061 2.24786 1.16278 3.20668 0.702081 4.70746V4.74915C0.28745 6.20824 0.28745 8.45942 0.702081 11.8779C0.840292 13.0451 0.978502 14.0457 1.07064 14.8377C0.886362 15.0462 0.702081 15.2963 0.563871 15.5881C0.33352 16.0467 0.0110292 16.7137 0.14924 17.5475C0.28745 18.5063 0.886362 19.3401 1.80776 19.882C1.85383 20.2155 1.89991 20.549 1.99205 20.8825V20.9242C2.49882 23.5089 3.69664 24.8429 5.53945 24.8429C5.67766 24.8429 5.81587 24.8429 5.95408 24.8012C6.36871 24.7595 6.96762 24.5094 7.47439 24.301C9.08685 23.4255 9.68576 22.7168 9.73183 22.0498C9.73183 21.7163 9.08685 19.9237 9.08685 19.9237C9.04078 19.7986 8.99471 19.6319 8.94864 19.3401C8.94864 19.2567 8.94864 19.1733 8.90257 19.0899C9.68576 18.8815 10.469 18.6314 11.2521 18.4229C11.5746 18.3396 11.9432 18.2562 12.2657 18.1728C12.3118 18.2979 12.3118 18.4229 12.3578 18.5897C12.7725 20.1738 12.8185 20.2989 12.8646 20.3823L12.9107 20.5073C13.1871 21.1744 13.5557 21.6746 13.9703 22.0498C13.2792 22.6751 12.8646 23.5923 12.7725 24.8429C12.7264 25.635 12.6803 26.6772 12.6803 28.0112C12.5421 27.7194 12.3118 27.4693 12.0814 27.2192C11.5286 26.6772 10.8375 26.302 9.96218 26.1353C8.99471 25.9268 8.02723 26.0102 7.1519 26.3854C6.2305 26.8023 5.58552 27.4693 5.35517 28.3031V28.3447C4.38769 28.3447 3.46629 28.6782 2.86738 29.3453L2.82131 29.3869C2.26847 29.9289 1.66955 30.8044 1.53134 32.3468C1.34706 34.8064 2.17633 38.0164 7.33618 39.2671C8.67222 39.6006 12.1275 39.9341 14.1546 39.684C14.5692 39.7673 15.0299 39.8507 15.5367 39.9341C15.4445 40.1842 15.4445 40.476 15.4445 40.7679C15.4445 41.6016 15.8131 42.3937 16.4581 42.9773C16.8266 43.2692 17.1952 43.5193 17.5638 43.686C18.3469 43.9779 19.3605 43.9779 20.1898 43.6444C20.6044 43.8111 21.019 43.8528 21.4797 43.8528C22.4011 43.8528 23.2765 43.5193 23.9214 42.9357C24.6125 42.352 24.935 41.5599 24.935 40.7262C24.935 40.5177 24.8889 40.3093 24.8889 40.1425C25.5339 40.2676 26.3171 40.351 27.2385 40.476L27.4688 40.5177C28.5284 40.6428 30.4634 40.8512 31.8916 40.7679C32.168 40.7679 32.3983 40.7262 32.6748 40.7262L33.5501 40.6428C35.8536 40.3927 37.7425 39.809 39.5392 38.9336L39.5853 38.8919C41.5202 37.8914 42.672 36.3072 42.9484 34.3479C43.2248 32.0967 42.4416 30.2624 40.6449 28.9284ZM8.11938 7.33383V7.29214C8.11938 7.29214 8.11938 7.29215 8.11938 7.33383ZM23.5068 3.8737C23.8293 3.70694 24.1057 3.58189 24.3361 3.58189C24.5203 3.58189 24.7046 3.62357 24.935 3.74864C25.1653 3.8737 25.3035 3.99877 25.3035 4.16552C25.3035 4.16552 25.3035 4.20721 25.1653 4.79084C25.0271 5.24942 24.935 6.16656 24.935 7.50059L24.7968 15.0045L24.8428 15.0462C25.4417 14.7127 26.271 14.0457 27.3306 13.1702L29.3577 11.2942C30.832 9.91851 31.2005 9.75175 31.3387 9.75175C31.523 9.75175 31.7073 9.79345 31.8455 9.87682C32.5826 8.25098 33.504 7.41721 34.6558 7.37553C35.8075 7.33384 37.0975 7.87578 38.5257 8.91798C39.9538 9.96019 40.6449 11.0024 40.691 12.0863C40.737 13.462 40.1381 14.671 38.9403 15.6715C37.7425 16.7137 36.3604 17.2556 34.8401 17.2556C34.0108 17.2556 33.1355 16.672 32.9051 16.6303C32.6287 16.5469 32.4444 16.7137 32.4444 16.9221C32.4905 19.4651 33.458 20.7158 35.3008 20.6741C36.2682 20.6741 37.0975 20.3406 37.9268 19.7569C38.3875 19.4234 38.9403 18.8815 39.4931 18.1728C39.9538 17.6308 40.1842 17.3807 40.3685 17.339C40.9213 17.2557 41.1977 17.6308 41.2438 18.2562C41.2438 19.215 40.5528 20.0905 39.1246 20.9242C37.8346 21.6329 36.6368 22.0081 35.485 22.0498C32.2141 22.0915 30.5555 20.2572 30.4634 16.5053C30.4173 15.0879 30.6477 13.5454 31.1084 11.9195C30.5095 12.3364 29.8184 12.8367 29.0352 13.5037C27.0081 15.0879 26.5935 15.7549 26.5935 16.005C26.5935 16.0467 26.6856 16.2968 27.4228 17.1306C28.2981 18.0477 29.2195 19.0066 30.0948 20.0071C31.2927 21.1744 32.3062 21.9664 33.1815 22.3416C33.1815 22.3416 33.3658 22.425 33.6422 22.5084C33.2737 22.9669 32.3062 23.3005 31.9837 23.3005C31.523 23.3005 30.7859 22.7585 29.7263 21.6329C28.3902 20.2155 27.0081 18.8398 26.4092 18.1728C25.9946 17.7142 25.3035 17.1306 24.935 16.8805C24.8889 16.8388 24.8428 16.8805 24.7968 16.9638C24.7968 16.9638 24.7046 17.4641 24.7046 17.6308C24.7046 17.7976 24.7046 20.1738 24.7046 20.1738C24.7046 20.2989 24.7507 20.549 24.8889 20.7992C25.0271 21.091 25.1193 21.3411 25.1193 21.5079C25.1193 21.6329 25.0271 21.758 24.8428 21.8831C24.6586 22.0081 24.5203 22.0498 24.3361 22.0498C23.5068 22.0498 23.0922 21.6329 23.0922 20.8408C23.0922 20.8408 23.0922 17.7142 23.0922 17.1723C23.0922 16.6303 23.1843 14.0457 23.1843 13.8372C23.1843 13.6288 23.2304 7.95916 23.2304 7.95916C23.2304 6.95864 23.1843 6.12487 23.0922 5.54123C23.0922 5.45785 23.0461 5.33279 22.954 4.99929C22.9079 4.74916 22.8618 4.54071 22.8618 4.37396C23.0461 4.2489 23.1843 4.04045 23.5068 3.8737ZM22.6315 22.6334C22.4933 22.9253 22.4011 23.1754 22.4011 23.4255L21.5719 29.0118C21.4797 29.0118 21.4336 29.0118 21.3415 29.0118C21.2954 29.0118 21.2954 29.0118 21.2494 29.0118H21.2033C20.5122 29.0534 19.8673 29.3036 19.3144 29.6788C19.0841 29.8455 18.8537 30.054 18.6694 30.2624C18.6694 30.0123 18.6694 29.7205 18.6694 29.4286C18.6694 28.6783 18.6234 28.0112 18.6234 27.4693C18.6234 26.7606 18.5773 26.1769 18.6234 25.7601C18.6234 25.6767 18.6694 25.5099 18.7155 25.0931C18.7155 25.0514 18.7616 24.968 18.7616 24.8846C18.8998 24.1759 19.038 23.3838 18.5773 22.5918L18.4852 22.4667C18.8076 22.2999 19.0841 22.0498 19.3144 21.7997C19.4526 21.7997 19.5908 21.7997 19.7291 21.7997C20.6044 21.7997 21.3876 21.4662 21.9865 20.9242C22.0326 21.5912 22.2629 22.1749 22.6315 22.6334ZM19.7291 4.95759C20.1437 4.95759 20.5122 5.08266 20.7887 5.33279C21.0651 5.58292 21.2494 5.87474 21.2494 6.24994C21.2494 6.87526 20.9269 7.20876 20.2358 7.20876C19.8673 7.20876 19.4987 7.0837 19.1762 6.83357C18.8537 6.58344 18.6694 6.29163 18.6694 5.91643C18.6694 5.24942 18.9919 4.95759 19.7291 4.95759ZM18.5773 9.75175C19.3605 9.33487 20.6044 9.66838 20.6965 10.252C20.7426 10.5855 20.6044 11.0858 20.4662 11.7111C20.2819 12.3364 20.2358 12.8367 20.2358 13.1285V19.0483C20.2358 19.4234 20.5583 20.549 20.5122 20.6741C20.4662 20.7992 20.2819 20.9242 20.1437 20.9242C19.1301 20.9242 18.6234 20.4657 18.6234 19.6319V9.75175H18.5773ZM10.0083 16.0467C8.62615 16.2968 6.27657 16.7137 5.86194 16.7971C5.40124 16.8805 5.35517 17.0472 5.35517 17.2556C5.35517 17.4641 5.40124 18.5897 5.40124 19.2567C5.49338 20.2572 5.67766 20.9242 5.95408 21.216C5.86194 21.4245 5.53945 21.5912 5.35517 21.6746C5.12481 21.758 4.75625 21.8414 4.5259 21.7997C4.11127 21.7163 3.92699 21.1744 3.83485 19.882C3.78878 19.0899 3.74271 17.5892 3.74271 17.4641C3.74271 17.339 3.6045 17.1723 3.46629 17.214C3.28201 17.2556 2.95952 17.1306 2.72917 17.0055C2.49882 16.8805 2.40668 16.7137 2.40668 16.5053C2.40668 16.3802 2.49882 16.1718 2.6831 15.9216C2.86738 15.6715 3.05166 15.5464 3.18987 15.5464C3.28201 15.5464 3.65057 15.5047 3.65057 15.5047C3.65057 14.7544 3.69664 13.2119 3.69664 10.919C3.65057 7.91747 3.88092 5.83305 4.34162 4.74915C4.57197 4.29058 4.89446 4.04046 5.35517 4.04046C5.67766 4.04046 5.95408 4.12383 6.2305 4.33227C6.50692 4.54071 6.64513 4.74916 6.64513 5.04098C6.64513 5.12435 6.55299 5.37448 6.36871 5.74967C6.18443 6.16655 6.04622 6.41669 6.04622 6.50007C5.49338 8.1676 5.26303 10.6689 5.26303 14.0457C5.26303 14.8377 5.44731 15.2129 5.7698 15.2129C5.86194 15.2129 6.36871 15.1295 7.29011 14.9628C9.36327 14.6293 13.141 14.1707 13.5557 14.1707C13.9703 14.1707 14.1546 13.9206 14.1085 13.4203L14.0624 11.1275C14.0164 9.66838 14.1085 8.1676 14.2928 6.70851C14.5692 4.37396 15.076 3.20669 15.8592 3.20669C16.2277 3.20669 16.5963 3.37344 16.8727 3.74864C17.1031 4.08214 17.2413 4.41565 17.2873 4.83254C16.9648 5.04098 16.8266 5.16604 16.7806 5.16604C16.6424 5.2911 16.5502 5.45786 16.4581 5.62461C16.0434 6.62513 15.767 9.33487 15.7209 13.7955C16.412 13.9206 16.6424 14.2124 16.7345 14.4208C16.8727 14.6293 16.7806 15.1712 16.5041 15.338C16.2277 15.5047 15.7209 15.3797 15.6288 15.5464C15.5367 15.7549 15.7209 17.7559 15.9052 18.3395C16.0895 18.9649 16.412 19.7569 16.412 20.1738C16.412 20.3823 16.3199 20.5907 16.1356 20.7992C15.9513 21.0076 15.767 21.1327 15.5367 21.1327C15.0299 21.1327 14.6613 20.7992 14.4771 20.0905C14.4771 20.0071 14.3849 19.4651 14.2467 18.4229C14.1085 17.3807 14.0624 16.7554 14.0624 16.4636C14.0624 16.1301 14.1085 15.8382 14.1546 15.5881C13.0489 15.6298 11.6207 15.7549 10.0083 16.0467ZM12.7264 31.5964C12.7264 31.8049 12.7264 32.4302 12.7264 32.6386C12.7264 33.1806 12.6803 33.6392 12.6803 34.056C12.6803 34.1394 12.6803 34.3062 12.5421 34.3479C12.1735 34.4729 11.2061 34.3479 10.0083 34.1811H9.96218C7.79688 33.9727 7.33618 33.6808 7.19797 32.8888C7.84295 33.3473 9.22506 33.5141 10.1465 33.4307C11.805 33.264 12.496 32.1384 12.7264 31.5964ZM6.59906 30.5542C6.64513 30.4708 6.6912 30.3875 6.78334 30.3875C6.87548 30.3875 6.92155 30.3875 7.05976 30.3875C7.19797 30.4292 7.33618 30.4708 7.47439 30.5959C7.65867 30.721 7.75081 30.8043 7.75081 30.8043C7.93509 30.9294 8.25759 31.0128 8.76436 31.1379C9.50148 31.3046 9.63969 31.2212 9.63969 31.1795C9.63969 31.1795 9.59362 31.0962 9.36327 30.9294C9.3172 30.8877 9.13292 30.7627 8.76436 30.5542C8.16544 30.179 7.79688 29.9289 7.65867 29.8038C7.29011 29.4703 7.1519 29.1368 7.24404 28.8033C7.33618 28.5115 7.56653 28.2614 7.93509 28.0946C8.34972 27.9279 8.81043 27.8862 9.3172 27.9695C9.73183 28.0529 10.1004 28.2614 10.3768 28.5115C10.6072 28.7616 10.7454 29.0118 10.7454 29.2619C10.7454 29.2619 10.7454 29.3453 10.6993 29.3869C10.6532 29.4286 10.5611 29.4286 10.5611 29.4286C10.3768 29.4286 9.96218 29.1785 9.87004 28.9701C9.7779 28.7616 9.59362 28.6366 9.27113 28.5532C8.94864 28.4698 8.67222 28.5115 8.44186 28.5949C8.21151 28.6783 8.0733 28.8033 8.02723 28.9284C7.98116 29.1368 8.16544 29.387 8.53401 29.6788L9.82397 30.5125C10.3768 30.846 10.5611 31.1379 10.515 31.3463C10.4229 31.7215 9.87004 31.7215 9.63969 31.7215C9.27113 31.7215 8.90257 31.6798 8.48794 31.5964C8.11937 31.513 7.75081 31.388 7.33618 31.2212C6.78334 31.0128 6.55299 30.8043 6.59906 30.5542ZM22.4933 41.5183C22.2168 41.7684 21.8943 41.8518 21.5258 41.8518C21.1572 41.8518 20.8808 41.7267 20.6044 41.5183C20.328 41.2681 20.1898 41.018 20.1898 40.6845C20.1898 41.018 20.0515 41.3098 19.8212 41.5183C19.5908 41.7267 19.2683 41.8518 18.8998 41.8518C18.6694 41.8518 18.5312 41.8101 18.393 41.7684C18.2548 41.7267 18.1166 41.6433 17.9784 41.4766C17.702 41.2264 17.6098 40.9763 17.6098 40.6428C17.6098 40.4344 17.6559 40.3093 17.702 40.1842C17.748 40.0592 17.8402 39.9341 18.0245 39.809C18.3009 39.5589 18.5773 39.4755 18.9459 39.4755C19.3144 39.4755 19.6369 39.6006 19.8673 39.8507C20.0976 40.1008 20.2358 40.351 20.2358 40.6845C20.2358 40.476 20.2819 40.351 20.328 40.2259C20.374 40.1008 20.4662 39.9758 20.6505 39.8507C20.9269 39.6006 21.2033 39.5172 21.5719 39.5172C21.9865 39.5172 22.2629 39.6423 22.5393 39.8507C22.8158 40.1008 22.954 40.351 22.954 40.6845C22.9079 41.018 22.7697 41.3098 22.4933 41.5183ZM21.6179 37.266C20.9269 37.5579 17.057 37.9331 14.9378 37.5162C13.6939 37.8914 9.87004 37.8914 8.53401 37.7246C6.50692 37.4328 3.97306 36.6407 3.97306 33.5141C3.97306 32.3468 4.47983 31.8882 4.66411 31.6798C5.03267 31.2629 6.04622 31.1796 6.27657 31.7632C6.46085 32.3051 4.94053 33.264 5.53945 34.5563C6.36871 36.3489 8.02723 36.474 10.2386 36.5157C12.2657 36.5573 13.3714 36.599 14.2467 36.0988C15.2142 35.5568 15.1681 34.6397 15.2602 34.0977C15.4445 32.3051 15.122 27.2608 14.8917 25.5933C14.7535 24.5094 15.2602 23.9675 15.8131 23.9675C16.0895 23.9675 16.3199 24.0508 16.4581 24.2176C16.8266 24.5928 16.6424 25.3849 16.6424 25.7184C16.6424 26.3437 17.0109 31.7632 16.9648 33.3473C16.9188 34.8064 16.8727 35.5985 16.1817 36.3072C16.9648 36.2238 18.3469 36.3906 19.4066 36.3072C20.5122 36.1821 21.0651 35.9737 21.3415 35.265C21.5719 34.7231 21.3415 34.056 20.9729 33.3473C20.6044 32.6803 20.4201 32.1384 20.374 31.7215C20.328 31.5131 20.6505 31.2212 20.8347 31.0962C21.019 30.9294 21.2494 30.846 21.4797 30.8043C21.8483 30.7627 22.6775 33.3057 22.9079 34.8064C23.0461 35.932 22.5854 36.8492 21.6179 37.266ZM39.2628 36.3072C38.111 37.1827 35.0243 38.1415 33.0894 38.2666C31.1544 38.3916 29.8184 38.3082 29.0813 38.3082C28.2981 38.2666 26.1328 38.2249 25.58 37.808C25.0271 37.3911 24.8428 37.0159 24.7507 36.2655C24.6586 35.3901 24.7046 34.8481 24.7046 34.5146L25.2575 24.7595C25.2575 24.5511 25.3957 24.3844 25.7182 24.1759C25.9946 23.9675 26.271 23.8841 26.4553 23.8841C26.5935 23.8841 26.7778 23.9675 27.0081 24.1342C27.2385 24.301 27.3306 24.426 27.3306 24.5094C27.1003 24.8012 26.9621 25.3015 26.916 25.9268C26.4553 28.7199 26.1789 31.3046 26.0867 33.7225C26.0407 34.8481 25.9485 35.3901 26.0867 36.0988C26.271 37.0159 27.7913 37.1827 28.4363 37.2243C29.0813 37.266 29.9106 37.266 30.187 37.266C30.0948 37.1827 29.9566 37.0993 29.9566 37.0993C29.1734 36.1821 28.7588 35.0566 28.7127 33.7642C28.6667 31.388 30.5095 29.9706 34.2872 29.512C34.794 29.4703 35.3008 29.4286 35.8075 29.4703C37.2818 29.512 38.4796 29.8455 39.401 30.4292C40.5528 31.1379 41.0595 32.1384 41.0135 33.4724C40.9674 34.6397 40.3685 35.4318 39.2628 36.3072Z" fill="#00A3B9"/>
<path d="M35.3006 15.9216C36.3142 15.9216 37.0974 15.5047 37.7423 14.7126C38.3413 14.0039 38.6177 13.1701 38.6177 12.253C38.6177 11.5026 38.3413 10.7522 37.8345 10.0852C37.3277 9.41818 36.6827 9.08467 35.8995 9.12635C34.9321 9.12635 34.1489 9.70999 33.55 10.8356C33.0432 11.7527 32.8128 12.7532 32.8589 13.7121C32.8589 14.3374 33.0893 14.8793 33.55 15.2962C34.0107 15.7548 34.6096 15.9632 35.3006 15.9216Z" fill="#00A3B9"/>
</svg>
