<svg width="15" height="21" viewBox="0 0 15 21" fill="none" xmlns="http://www.w3.org/2000/svg">
<path d="M3.26664 0.831144L4.34264 0.487144C5.35164 0.165144 6.42964 0.686144 6.86164 1.70414L7.72164 3.73214C8.09564 4.61514 7.88764 5.65414 7.20764 6.30014L5.31264 8.09814C5.42964 9.17414 5.79164 10.2331 6.39764 11.2751C6.97311 12.2833 7.74501 13.1657 8.66764 13.8701L10.9436 13.1101C11.8056 12.8231 12.7456 13.1541 13.2736 13.9311L14.5066 15.7411C15.1216 16.6451 15.0106 17.8911 14.2476 18.6571L13.4306 19.4781C12.6166 20.2951 11.4536 20.5921 10.3786 20.2561C7.83864 19.4641 5.50564 17.1131 3.37564 13.2031C1.24264 9.28714 0.489638 5.96314 1.11764 3.23514C1.38164 2.08714 2.19864 1.17214 3.26664 0.831144Z" fill="white"/>
</svg>
