<svg width="25" height="25" viewBox="0 0 25 25" fill="none" xmlns="http://www.w3.org/2000/svg">
<path fill-rule="evenodd" clip-rule="evenodd" d="M18.1134 14.7741C17.8154 14.6251 16.3544 13.9071 16.0824 13.8071C15.8104 13.7081 15.6124 13.6591 15.4134 13.9571C15.2154 14.2531 14.6464 14.9231 14.4734 15.1211C14.2994 15.3201 14.1264 15.3441 13.8294 15.1961C13.5324 15.0461 12.5744 14.7331 11.4394 13.7211C10.5564 12.9331 9.95936 11.9601 9.78636 11.6621C9.61336 11.3651 9.76736 11.2041 9.91636 11.0561C10.0504 10.9231 10.2134 10.7091 10.3624 10.5361C10.5114 10.3621 10.5604 10.2381 10.6594 10.0391C10.7594 9.84113 10.7094 9.66813 10.6344 9.51913C10.5604 9.37013 9.96636 7.90713 9.71836 7.31213C9.47736 6.73313 9.23236 6.81213 9.05036 6.80213C8.87636 6.79413 8.67836 6.79213 8.48036 6.79213C8.28236 6.79213 7.96036 6.86613 7.68836 7.16413C7.41536 7.46113 6.64836 8.18013 6.64836 9.64313C6.64836 11.1051 7.71236 12.5181 7.86136 12.7171C8.01036 12.9151 9.95636 15.9171 12.9374 17.2041C13.6474 17.5101 14.2004 17.6931 14.6314 17.8291C15.3434 18.0561 15.9914 18.0241 16.5034 17.9471C17.0734 17.8621 18.2614 17.2281 18.5094 16.5341C18.7564 15.8401 18.7564 15.2451 18.6824 15.1211C18.6084 14.9971 18.4104 14.9231 18.1124 14.7741H18.1134ZM12.6914 22.1771H12.6874C10.9168 22.1775 9.17874 21.7015 7.65536 20.7991L7.29536 20.5851L3.55336 21.5671L4.55236 17.9191L4.31736 17.5451C3.3275 15.9695 2.80366 14.1459 2.80636 12.2851C2.80836 6.83513 7.24236 2.40113 12.6954 2.40113C15.3354 2.40113 17.8174 3.43113 19.6834 5.29913C20.6037 6.21571 21.3332 7.3057 21.8296 8.50603C22.326 9.70636 22.5795 10.9932 22.5754 12.2921C22.5734 17.7421 18.1394 22.1771 12.6914 22.1771ZM21.1034 3.88013C20.0016 2.77105 18.6906 1.89167 17.2465 1.29293C15.8023 0.694195 14.2537 0.388014 12.6904 0.392131C6.13636 0.392131 0.800364 5.72713 0.798364 12.2841C0.795327 14.3709 1.34274 16.4215 2.38536 18.2291L0.698364 24.3921L7.00236 22.7381C8.74624 23.6883 10.7005 24.1861 12.6864 24.1861H12.6914C19.2454 24.1861 24.5814 18.8511 24.5834 12.2931C24.5882 10.7304 24.2831 9.18223 23.6858 7.73816C23.0885 6.2941 22.2107 4.9828 21.1034 3.88013Z" fill="white"/>
</svg>
