<svg width="31" height="31" viewBox="0 0 31 31" fill="none" xmlns="http://www.w3.org/2000/svg">
<g clip-path="url(#clip0_1438_26378)">
<path fill-rule="evenodd" clip-rule="evenodd" d="M22.3462 18.2102C21.9797 18.027 20.1829 17.144 19.8484 17.021C19.5138 16.8992 19.2703 16.839 19.0256 17.2055C18.7821 17.5695 18.0823 18.3935 17.8696 18.637C17.6556 18.8817 17.4428 18.9112 17.0775 18.7292C16.7123 18.5447 15.5341 18.1598 14.1382 16.9152C13.0523 15.9461 12.3181 14.7495 12.1053 14.383C11.8926 14.0177 12.082 13.8197 12.2652 13.6377C12.43 13.4741 12.6305 13.211 12.8137 12.9982C12.997 12.7842 13.0572 12.6317 13.179 12.387C13.302 12.1435 13.2405 11.9307 13.1482 11.7475C13.0572 11.5642 12.3267 9.76496 12.0217 9.03321C11.7253 8.32114 11.424 8.41829 11.2002 8.40599C10.9862 8.39616 10.7427 8.3937 10.4992 8.3937C10.2557 8.3937 9.85965 8.4847 9.52513 8.85119C9.18939 9.21645 8.2461 10.1007 8.2461 11.9C8.2461 13.698 9.55465 15.4357 9.73789 15.6805C9.92114 15.924 12.3144 19.6159 15.9805 21.1987C16.8537 21.5751 17.5338 21.8001 18.0639 21.9674C18.9395 22.2465 19.7364 22.2072 20.3661 22.1125C21.0671 22.008 22.5282 21.2282 22.8332 20.3747C23.1369 19.5212 23.1369 18.7895 23.0459 18.637C22.9549 18.4845 22.7114 18.3935 22.3449 18.2102H22.3462ZM15.678 27.3147H15.6731C13.4956 27.3151 11.358 26.7297 9.48455 25.62L9.04181 25.3568L4.43977 26.5645L5.66837 22.0781L5.37936 21.6181C4.16199 19.6803 3.51775 17.4376 3.52108 15.1492C3.52354 8.44658 8.97663 2.99349 15.6829 2.99349C18.9297 2.99349 21.9821 4.26022 24.277 6.55755C25.4089 7.6848 26.3061 9.0253 26.9166 10.5015C27.5271 11.9777 27.8388 13.5603 27.8337 15.1578C27.8312 21.8604 22.3781 27.3147 15.678 27.3147ZM26.0234 4.81242C24.6683 3.44844 23.0561 2.36694 21.28 1.63059C19.5039 0.894244 17.5994 0.517692 15.6768 0.522755C7.61643 0.522755 1.05403 7.08392 1.05157 15.1479C1.04784 17.7143 1.72106 20.2362 3.00332 22.4593L0.928589 30.0388L8.68147 28.0046C10.8261 29.1731 13.2295 29.7854 15.6718 29.7854H15.678C23.7383 29.7854 30.3007 23.2243 30.3032 15.159C30.3091 13.2371 29.9339 11.3331 29.1993 9.55716C28.4647 7.7812 27.3852 6.16852 26.0234 4.81242Z" fill="white"/>
</g>
<defs>
<clipPath id="clip0_1438_26378">
<rect width="29.516" height="29.516" fill="white" transform="translate(0.928589 0.522705)"/>
</clipPath>
</defs>
</svg>
